<svg xmlns="http://www.w3.org/2000/svg" xmlns:xlink="http://www.w3.org/1999/xlink" width="960" height="132" viewBox="0 0 960 132"><defs><clipPath id="a"><rect width="24" height="132" fill="none"/></clipPath><clipPath id="b"><path d="M6,119v8c0,1.656,2.686,3,6,3s6-1.344,6-3v-8Z" transform="translate(-6 -119)" fill="none"/></clipPath><clipPath id="d"><path d="M0,109.5v10c0,3.314,5.373,6,12,6s12-2.686,12-6v-10Z" transform="translate(0 -109.5)" fill="none"/></clipPath><clipPath id="e"><path d="M0,3.5v16c0,3.314,5.373,6,12,6s12-2.686,12-6V3.5Z" transform="translate(0 -3.5)" fill="none"/></clipPath><clipPath id="g"><path d="M6,0V8c0,1.657,2.686,3,6,3s6-1.343,6-3V0Z" transform="translate(-6)" fill="none"/></clipPath></defs><line x2="959.5" transform="translate(0.5 118)" fill="none" stroke="#000" stroke-width="2"/><path d="M0,0H959.5" transform="translate(0.5 10)" fill="none" stroke="#000" stroke-width="2"/><g clip-path="url(#a)"><path d="M12,119.91c3.107,0,5.09,1.238,5.09,2.09v3c0,.852-1.983,2.09-5.09,2.09S6.91,125.852,6.91,125v-3c0-.852,1.983-2.09,5.09-2.09m0-.91c-3.314,0-6,1.343-6,3v3c0,1.657,2.686,3,6,3s6-1.343,6-3v-3c0-1.657-2.686-3-6-3"/></g><g transform="translate(6 119)"><g clip-path="url(#b)"><path d="M18,122c0,1.657-2.686,3-6,3s-6-1.343-6-3v10H18Z" transform="translate(-6 -119)"/></g></g><g clip-path="url(#a)"><path d="M12,124.545c-3.317,0-5.545-1.316-5.545-2.545s2.228-2.545,5.545-2.545,5.545,1.317,5.545,2.545-2.228,2.545-5.545,2.545" fill="#fff"/><path d="M12,119.91c3.107,0,5.09,1.238,5.09,2.09s-1.983,2.09-5.09,2.09S6.91,122.852,6.91,122s1.983-2.09,5.09-2.09m0-.91c-3.314,0-6,1.343-6,3s2.686,3,6,3,6-1.343,6-3-2.686-3-6-3"/><path d="M12,5.321c6.214,0,10.179,2.475,10.179,4.179v110c0,1.7-3.965,4.179-10.179,4.179S1.821,121.2,1.821,119.5V9.5C1.821,7.8,5.786,5.321,12,5.321M12,3.5c-6.627,0-12,2.686-12,6v110c0,3.314,5.373,6,12,6s12-2.686,12-6V9.5c0-3.314-5.373-6-12-6"/></g><g transform="translate(0 109.5)"><g clip-path="url(#d)"><path d="M24,109.5c0,3.314-5.373,6-12,6s-12-2.686-12-6v20H24Z" transform="translate(0 -109.5)"/></g></g><g transform="translate(0 3.5)"><g clip-path="url(#e)"><path d="M24,9.5c0,3.314-5.373,6-12,6S0,12.814,0,9.5v20H24Z" transform="translate(0 -3.5)"/></g></g><g clip-path="url(#a)"><path d="M12,14.59C5.367,14.59.91,11.958.91,9.5S5.367,4.41,12,4.41,23.09,7.042,23.09,9.5,18.633,14.59,12,14.59" fill="#fff"/><path d="M12,5.321c6.214,0,10.179,2.475,10.179,4.179S18.214,13.679,12,13.679,1.821,11.2,1.821,9.5,5.786,5.321,12,5.321M12,3.5c-6.627,0-12,2.686-12,6s5.373,6,12,6,12-2.686,12-6-5.373-6-12-6"/><path d="M12,.91c3.107,0,5.09,1.238,5.09,2.09V6c0,.852-1.983,2.09-5.09,2.09S6.91,6.852,6.91,6V3C6.91,2.148,8.893.91,12,.91M12,0C8.686,0,6,1.343,6,3V6c0,1.657,2.686,3,6,3s6-1.343,6-3V3c0-1.657-2.686-3-6-3"/></g><g transform="translate(6)"><g clip-path="url(#g)"><path d="M18,3c0,1.657-2.686,3-6,3S6,4.657,6,3V13H18Z" transform="translate(-6)"/></g></g><g clip-path="url(#a)"><path d="M12,5.545C8.683,5.545,6.455,4.229,6.455,3S8.683.455,12,.455,17.545,1.771,17.545,3,15.317,5.545,12,5.545"/><path d="M12,.91c3.107,0,5.09,1.238,5.09,2.09S15.107,5.09,12,5.09,6.91,3.852,6.91,3,8.893.91,12,.91M12,0C8.686,0,6,1.343,6,3s2.686,3,6,3,6-1.343,6-3-2.686-3-6-3"/><path d="M1,25.9c1.85,2.121,6.076,3.6,11,3.6s9.15-1.484,11-3.6" fill="none" stroke="#000" stroke-miterlimit="10" stroke-width="1"/><path d="M1,107.895c1.85,2.121,6.076,3.605,11,3.605s9.15-1.484,11-3.605" fill="none" stroke="#000" stroke-miterlimit="10" stroke-width="1"/></g></svg>